<svg width="48" height="48" viewBox="0 0 48 48" fill="none" xmlns="http://www.w3.org/2000/svg">
<g clip-path="url(#clip0_48_1419)">
<path d="M36.2706 22.8957H45.7044C45.8518 22.8957 45.9992 22.7486 45.9992 22.6014C45.3359 12.7419 38.1868 4.57465 28.753 2.51445C28.5319 2.44087 28.3108 2.73519 28.5319 2.95592C32.954 7.88569 35.7546 14.9492 36.0494 22.675C35.9757 22.8221 36.1232 22.8957 36.2706 22.8957Z" fill="#091E42"/>
<path d="M24.1841 2C24.1104 2 24.0367 2 23.963 2C23.8893 2 23.8156 2 23.7419 2C18.0668 6.34114 14.5292 14.0669 14.1606 22.602C14.1606 22.7492 14.308 22.8963 14.4555 22.8963H33.4705C33.6179 22.8963 33.7653 22.7492 33.7653 22.602C33.4705 14.0669 29.8591 6.34114 24.1841 2Z" fill="#36B37E"/>
<path d="M14.4555 25.1035C14.308 25.1035 14.1606 25.2507 14.1606 25.3978C14.5292 34.0065 18.0668 41.6587 23.7419 45.9998C23.8156 45.9998 23.8893 45.9998 23.963 45.9998C24.0367 45.9998 24.1104 45.9998 24.1841 45.9998C29.8591 41.6587 33.3968 33.9329 33.7653 25.3978C33.7653 25.2507 33.6179 25.1035 33.4705 25.1035H14.4555Z" fill="#091E42"/>
<path d="M35.9758 25.3243C35.681 33.05 32.954 40.1136 28.5319 45.0433C28.3845 45.2641 28.5319 45.5584 28.753 45.4848C38.1868 43.4246 45.4096 35.2574 45.9992 25.3978C45.9992 25.2507 45.8518 25.1035 45.7044 25.1035H36.2706C36.1232 25.1035 35.9758 25.2507 35.9758 25.3243Z" fill="#36B37E"/>
<path d="M11.7283 25.1035H2.29449C2.14708 25.1035 1.99968 25.2507 1.99968 25.3978C2.58929 35.2574 9.81207 43.4246 19.2459 45.4848C19.467 45.5584 19.6881 45.2641 19.467 45.0433C14.9712 40.1136 12.2442 33.05 11.9494 25.3243C12.0231 25.2507 11.8757 25.1035 11.7283 25.1035Z" fill="#36B37E"/>
<path d="M12.0231 22.675C12.3179 14.9492 15.0449 7.88569 19.467 2.95592C19.6144 2.73519 19.467 2.44087 19.2459 2.51445C9.81207 4.57465 2.58929 12.7419 1.99968 22.6014C1.99968 22.7486 2.14708 22.8957 2.29449 22.8957H11.7283C11.8757 22.8957 12.0231 22.8221 12.0231 22.675Z" fill="#091E42"/>
</g>
<defs>
<clipPath id="clip0_48_1419">
<rect width="44" height="44" fill="white" transform="translate(1.99968 2)"/>
</clipPath>
</defs>
</svg>
