<svg width="21" height="16" viewBox="0 0 21 16" fill="none" xmlns="http://www.w3.org/2000/svg">
<path d="M18.8208 1.88042L20.4167 0.337684V0H14.8883L10.9483 9.90989L6.46582 0H0.669156V0.337684L2.53332 2.60547C2.71499 2.77305 2.80999 3.01811 2.78582 3.26484V12.1768C2.84332 12.4977 2.73999 12.8278 2.51666 13.0611L0.416656 15.6328V15.9663H6.37082V15.6286L4.27082 13.0611C4.04332 12.8269 3.93582 12.5027 3.98166 12.1768V4.46821L9.20832 15.9705H9.81582L14.31 4.46821V13.6312C14.31 13.8728 14.31 13.9225 14.1533 14.0808L12.5367 15.6615V16H20.38V15.6623L18.8217 14.1204C18.685 14.016 18.6142 13.8408 18.6433 13.6707V2.33011C18.6142 2.15916 18.6842 1.984 18.8208 1.88042Z" fill="#505F79"/>
</svg>
