<svg width="1440" height="331" viewBox="0 0 1440 331" fill="none" xmlns="http://www.w3.org/2000/svg">
<g clip-path="url(#clip0_34_2543)">
<path d="M1381.09 211.065L1480.88 245.001H1337.7L1319.35 242.998L1310.45 237.435L1340.82 211.065H1381.09Z" fill="#172B4D"/>
<path d="M1367.96 148.758V143.418C1367.96 143.418 1356.28 120.275 1354.61 120.052C1352.94 119.83 1217.22 63.3086 1217.22 63.3086L1268.95 164.001L1289.42 185.809L1367.96 148.758Z" fill="white" stroke="#36B37E" stroke-width="1.35786" stroke-miterlimit="10"/>
<mask id="mask0_34_2543" style="mask-type:alpha" maskUnits="userSpaceOnUse" x="1216" y="62" width="154" height="126">
<path d="M1368.38 149.363V144.022C1368.38 144.022 1356.7 120.879 1355.03 120.657C1353.36 120.434 1217.64 63.9131 1217.64 63.9131L1269.37 164.606L1289.84 186.413L1368.38 149.363Z" fill="white" stroke="#36B37E" stroke-width="1.35786" stroke-miterlimit="10"/>
</mask>
<g mask="url(#mask0_34_2543)">
<path d="M1311.34 122.611L1294.32 123.168L1286.53 109.371L1270.18 110.15L1277.85 123.613L1261.61 124.169L1269.18 137.854L1285.53 137.52L1302.44 137.075L1310.67 151.317L1328.14 151.206L1336.81 165.892H1355.17L1346.16 150.983L1337.37 136.297L1319.68 136.742L1311.34 122.611Z" fill="#C5E9DA"/>
<path d="M1303.22 108.703L1295.21 95.1289L1278.74 96.019L1286.53 109.371L1303.22 108.703Z" fill="#36B37E"/>
<path d="M1328.8 121.944L1320.35 107.925L1303.22 108.704L1311.34 122.611L1328.8 121.944Z" fill="#36B37E"/>
<path d="M1337.93 107.145L1329.36 93.2373L1312.12 94.1274L1320.35 107.924L1337.93 107.145Z" fill="#36B37E"/>
<path d="M1346.71 121.387L1328.8 121.943L1337.37 136.296L1355.61 135.962L1374.3 135.517L1365.07 120.83L1356.06 106.366L1337.93 107.145L1346.71 121.387Z" fill="#36B37E"/>
<path d="M1254.27 110.817L1270.18 110.15L1262.72 96.7984L1278.74 96.0195L1271.18 82.7793L1255.38 83.7807L1239.92 84.782L1247.04 97.6885L1231.69 98.4673L1216.78 99.2461L1223.56 112.153L1238.69 111.485L1245.81 124.725L1261.61 124.169L1254.27 110.817Z" fill="#172B4D"/>
<path d="M1230.46 125.17L1237.47 138.521L1253.16 138.187L1245.81 124.725L1230.46 125.17Z" fill="#36B37E"/>
<path d="M1218.11 73.2103L1224.79 85.7829L1239.92 84.7816L1232.91 72.0977L1218.11 73.2103Z" fill="#36B37E"/>
<path d="M1295.21 95.1292L1312.12 94.1278L1304 80.665L1296.1 67.4248L1279.74 68.6487L1263.72 69.8726L1271.18 82.779L1287.42 81.7777L1295.21 95.1292Z" fill="#36B37E"/>
<path d="M1338.48 78.4395L1321.02 79.5521L1329.36 93.2374L1347.16 92.3473L1338.48 78.4395Z" fill="#36B37E"/>
<path d="M1374.53 105.588L1365.4 91.3467L1347.16 92.348L1356.06 106.367L1374.53 105.588Z" fill="#36B37E"/>
<path d="M1253.16 138.187L1260.61 151.984L1276.85 151.761L1269.18 137.854L1253.16 138.187Z" fill="#36B37E"/>
</g>
<path d="M1337.7 145.197L1275.41 158.549L1273.85 162.665L1287.75 181.691L1337.7 145.197Z" fill="#172B4D"/>
<path d="M1373.3 149.426L1434.49 0.222656L1395.11 160.774L1390.88 162.221L1373.3 149.426Z" fill="white" stroke="#36B37E" stroke-width="1.35786" stroke-miterlimit="10"/>
<path d="M1395.44 159.328L1377.2 139.857L1373.3 149.426L1390.88 162.221L1395.11 160.775L1395.44 159.328Z" fill="#36B37E"/>
<path d="M1390.88 162.221L1378.31 151.54L1358.84 136.742L1309.56 156.547L1307.33 168.452L1319.35 185.475L1390.88 162.221Z" fill="white" stroke="#36B37E" stroke-width="1.35786" stroke-miterlimit="10"/>
<path d="M1365.63 170.343L1402 158.549L1381.09 211.065L1351.05 212.956L1365.63 170.343Z" fill="white" stroke="#36B37E" stroke-width="1.35786" stroke-miterlimit="10"/>
<path d="M1326.58 182.915L1319.35 185.474L1316.01 232.984L1319.35 242.997L1351.05 212.956L1365.63 170.343L1326.58 182.915Z" fill="white" stroke="#36B37E" stroke-width="1.35786" stroke-miterlimit="10"/>
<path d="M1423.92 151.54L1486.77 185.475L1326.58 182.916L1423.92 151.54Z" fill="#C5E9DA" stroke="#36B37E" stroke-width="1.35786" stroke-miterlimit="10"/>
<path d="M1319.35 185.475V177.687L1268.95 108.37L1262.28 118.94L1310.45 237.435L1316.01 232.984L1319.35 185.475Z" fill="white" stroke="#36B37E" stroke-width="1.35786" stroke-miterlimit="10"/>
<path d="M1268.95 108.369L1262.28 118.939L1239.81 139.857L1257.61 103.919L1268.95 108.369Z" fill="white" stroke="#36B37E" stroke-width="1.35786" stroke-miterlimit="10"/>
<path d="M1389.1 190.816L1326.58 182.916L1391.88 184.029L1389.1 190.816Z" fill="#172B4D"/>
<path d="M1333.37 180.802L1311.56 162.666L1310.67 165.781L1319.35 177.686V185.475L1333.37 180.802Z" fill="#172B4D"/>
<path d="M1305.78 226.085L1300.66 232.427L1293.98 226.085L1259.16 121.944L1262.28 118.939L1305.78 226.085Z" fill="#C5E9DA" stroke="#36B37E" stroke-width="1.35786" stroke-miterlimit="10"/>
</g>
<defs>
<clipPath id="clip0_34_2543">
<rect width="273" height="245" fill="white" transform="matrix(-1 0 0 1 1489 0)"/>
</clipPath>
</defs>
</svg>
