<svg width="19" height="20" viewBox="0 0 19 20" fill="none" xmlns="http://www.w3.org/2000/svg">
<path d="M18.4019 7.46114C18.4019 6.32124 18.0359 5.25043 17.3372 4.31779C17.6033 3.41969 17.6699 2.27979 17.6033 0.967185C17.5701 0.414508 17.1375 0 16.6052 0C16.3057 0 13.7771 0.0345423 12.3131 1.38169C11.0488 1.1399 9.71794 1.1399 8.42034 1.38169C6.98966 0.0345423 4.46101 0 4.12829 0C3.59594 0 3.16341 0.414508 3.13014 0.967185C3.03032 2.27979 3.13014 3.41969 3.39631 4.31779C2.6976 5.28497 2.33162 6.35579 2.33162 7.46114C2.33162 9.8791 4.12829 12.0553 6.85657 13.0915C6.75675 13.2988 6.69021 13.5406 6.62367 13.7824C3.72903 13.4715 2.36489 10.7427 2.29834 10.639C2.06544 10.1209 1.46655 9.91364 0.967475 10.19C0.468399 10.4318 0.268769 11.0535 0.534942 11.5717C0.601486 11.7444 2.43143 15.4404 6.45731 15.8549V18.9637C6.45731 19.5509 6.88984 20 7.45546 20H13.278C13.8436 20 14.2762 19.5509 14.2762 18.9637V14.8532C14.2762 14.2314 14.1431 13.6442 13.9102 13.1261C16.6052 12.0553 18.4019 9.91364 18.4019 7.46114Z" fill="#505F79"/>
</svg>
