<svg width="39" height="39" viewBox="0 0 39 39" fill="none" xmlns="http://www.w3.org/2000/svg">
<path d="M12 22.7999C12 23.1999 12.2 23.5999 12.6 23.7999L17.6 26.7999C18.2 27.1999 18.8 26.7999 18.8 26.1999V20.5999C18.8 20.3999 18.6 19.9999 18.4 19.9999L13.2 16.5999C12.8 16.3999 12 16.7999 12 17.3999V22.7999Z" fill="#091E42"/>
<path d="M19.5998 20.3997V25.9997C19.5998 26.5997 20.1998 26.9997 20.7998 26.5997L25.7998 23.5997C26.1998 23.3997 26.3998 22.9997 26.3998 22.5997V17.3997C26.3998 16.7997 25.7998 16.3997 25.1998 16.7997L19.9998 19.5997C19.7998 19.7997 19.5998 19.9997 19.5998 20.3997Z" fill="#091E42"/>
<path d="M25.2 15.7998L19.6 18.9998C19.4 19.1998 19 19.1998 18.8 18.9998L13.2 15.7998C12.6 15.3998 12.6 14.7998 13.2 14.3998L18.8 11.1998C19 10.9998 19.4 10.9998 19.6 11.1998L25.2 14.3998C25.8 14.5998 25.8 15.3998 25.2 15.7998Z" fill="#36B37E"/>
<path d="M0 34.0001C0 34.4001 0.2 34.8001 0.6 35.0001L5.6 38.0001C6.2 38.4001 6.8 38.0001 6.8 37.4001V31.8001C6.8 31.6001 6.6 31.2001 6.4 31.2001L1.2 28.2001C0.6 27.8001 0 28.2001 0 28.8001V34.0001H0Z" fill="#091E42"/>
<path d="M7.59981 31.4003V37.0003C7.59981 37.6003 8.19981 38.0003 8.79981 37.6003L13.7998 34.6003C14.1998 34.4003 14.3998 34.0003 14.3998 33.6003V28.0003C14.3998 27.4003 13.7998 27.0003 13.1998 27.4003L7.99981 30.8003C7.79981 31.0003 7.59981 31.2003 7.59981 31.4003Z" fill="#091E42"/>
<path d="M13.2 26.7998L7.6 29.9998C7.4 30.1998 7 30.1998 6.8 29.9998L1.2 26.7998C0.6 26.3998 0.6 25.7998 1.2 25.3998L6.8 22.1998C7 21.9998 7.4 21.9998 7.6 22.1998L13.2 25.3998C13.6 25.7998 13.6 26.5998 13.2 26.7998Z" fill="#36B37E"/>
<path d="M24.2001 34.0001C24.2001 34.4001 24.4001 34.8001 24.8001 35.0001L29.8001 38.0001C30.4001 38.4001 31.0001 38.0001 31.0001 37.4001V31.8001C31.0001 31.6001 30.8001 31.2001 30.6001 31.2001L25.4001 28.2001C24.8001 27.8001 24.2001 28.2001 24.2001 28.8001V34.0001Z" fill="#091E42"/>
<path d="M31.5998 31.4003V37.0003C31.5998 37.6003 32.1998 38.0003 32.7998 37.6003L37.7998 34.6003C38.1998 34.4003 38.3998 34.0003 38.3998 33.6003V28.0003C38.3998 27.4003 37.7998 27.0003 37.1998 27.4003L31.9998 30.8003C31.7998 31.0003 31.5998 31.2003 31.5998 31.4003Z" fill="#091E42"/>
<path d="M37.2 26.7998L31.6 29.9998C31.4 30.1998 31 30.1998 30.8 29.9998L25.2 26.7998C24.6 26.3998 24.6 25.7998 25.2 25.3998L30.8 22.1998C31 21.9998 31.4 21.9998 31.6 22.1998L37.2 25.3998C37.8 25.7998 37.8 26.5998 37.2 26.7998Z" fill="#36B37E"/>
<path d="M0 11.8005C0 12.2005 0.2 12.6005 0.6 12.8005L5.6 15.8005C6 16.0005 6.8 15.6005 6.8 15.0005V9.20046C6.8 9.00046 6.6 8.60046 6.4 8.60046L1.2 5.60046C0.6 5.40046 0 5.60046 0 6.40046V11.8005Z" fill="#091E42"/>
<path d="M7.59981 9.19968V14.7997C7.59981 15.3997 8.19981 15.7997 8.79981 15.3997L13.7998 12.3997C14.1998 12.1997 14.3998 11.7997 14.3998 11.3997V6.39968C14.3998 5.79968 13.7998 5.39968 13.1998 5.79968L7.99981 8.59968C7.79981 8.79968 7.59981 8.99968 7.59981 9.19968Z" fill="#091E42"/>
<path d="M13.2 4.6L7.6 7.8C7.4 8 7 8 6.8 7.8L1.2 4.6C0.6 4.2 0.6 3.6 1.2 3.2L6.8 0C7 0 7.4 0 7.6 0.2L13.2 3.4C13.6 3.6 13.6 4.4 13.2 4.6Z" fill="#36B37E"/>
<path d="M24.2001 11.8005C24.2001 12.2005 24.4001 12.6005 24.8001 12.8005L29.8001 15.8005C30.4001 16.2005 31.0001 15.8005 31.0001 15.2005V9.20047C31.0001 9.00047 30.8001 8.60047 30.6001 8.60047L25.4001 5.60047C24.8001 5.20047 24.2001 5.60047 24.2001 6.20047V11.8005Z" fill="#091E42"/>
<path d="M31.5998 9.19968V14.7997C31.5998 15.3997 32.1998 15.7997 32.7998 15.3997L37.7998 12.3997C38.1998 12.1997 38.3998 11.7997 38.3998 11.3997V6.39968C38.3998 5.79968 37.7998 5.39968 37.1998 5.79968L31.9998 8.59968C31.7998 8.79968 31.5998 8.99968 31.5998 9.19968Z" fill="#091E42"/>
<path d="M37.2 4.5998L31.6 7.9998C31.4 7.9998 31.2 7.9998 30.8 7.9998L25.2 4.7998C24.6 4.3998 24.6 3.7998 25.2 3.3998L30.8 0.199805C31 -0.00019531 31.4 -0.00019531 31.6 0.199805L37.2 3.3998C37.8 3.5998 37.8 4.3998 37.2 4.5998Z" fill="#36B37E"/>
</svg>
